<svg xmlns="http://www.w3.org/2000/svg" version="1.1" xmlns:xlink="http://www.w3.org/1999/xlink" xmlns:svgjs="http://svgjs.dev/svgjs" width="1500" height="1500" viewBox="0 0 1500 1500"><rect width="1500" height="1500" fill="#ffffff"></rect><g transform="matrix(0.6666666666666666,0,0,0.6666666666666666,249.39393939393938,435.99032258064517)"><svg viewBox="0 0 396 248" data-background-color="#ffffff" preserveAspectRatio="xMidYMid meet" height="939" width="1500" xmlns="http://www.w3.org/2000/svg" xmlns:xlink="http://www.w3.org/1999/xlink"><g id="tight-bounds" transform="matrix(1,0,0,1,0.2400000000000091,0.4000000000000057)"><svg viewBox="0 0 395.52 247.2" height="247.2" width="395.52"><g><svg></svg></g><g><svg viewBox="0 0 395.52 247.2" height="247.2" width="395.52"><g transform="matrix(1,0,0,1,75.54432,72.44665045584219)"><svg viewBox="0 0 244.43135999999998 102.3066990883156" height="102.3066990883156" width="244.43135999999998"><g><svg viewBox="0 0 244.43135999999998 102.3066990883156" height="102.3066990883156" width="244.43135999999998"><g><svg viewBox="0 0 244.43135999999998 102.3066990883156" height="102.3066990883156" width="244.43135999999998"><g id="textblocktransform"><svg viewBox="0 0 244.43135999999998 102.3066990883156" height="102.3066990883156" width="244.43135999999998" id="textblock"><g><svg viewBox="0 0 244.43135999999998 55.17934490728298" height="55.17934490728298" width="244.43135999999998"><g transform="matrix(1,0,0,1,0,0)"><svg width="244.43135999999998" viewBox="2.5 -33.75 186.04 42" height="55.17934490728298" data-palette-color="#3d3839"><path d="M2.5-25L7.5-25 10-22.5Q14.65-25.75 20-25.75L20-25.75Q23.5-25.75 25.5-24.23 27.5-22.7 27.5-20L27.5-20 27.5 0 17.5 0 17.5-17.5 15.95-17.5Q14.25-17.5 13.38-17.13 12.5-16.75 12.5-15.6L12.5-15.6 12.5 0 2.5 0 2.5-25ZM42.25 0L32.25 0 32.25-23.75 42.25-25 42.25 0ZM32.82-26.6Q31.7-27.45 31.7-29.7 31.7-31.95 32.82-32.85 33.95-33.75 37.27-33.75 40.6-33.75 41.72-32.85 42.85-31.95 42.85-29.7 42.85-27.45 41.72-26.6 40.6-25.75 37.27-25.75 33.95-25.75 32.82-26.6ZM57.25-15.4L57.25-15.4 57.25 0 47.25 0 47.25-32.5 57.25-33.25 57.25-24.1Q60.45-25.75 64.34-25.75 68.25-25.75 70.25-24.23 72.25-22.7 72.25-20L72.25-20 72.25 0 62.25 0 62.25-17.5 60.7-17.5Q58.9-17.5 58.07-17.13 57.25-16.75 57.25-15.4ZM79.12-2.53Q75.99-5.8 75.99-12.5 75.99-19.2 79.12-22.48 82.24-25.75 89.24-25.75 96.24-25.75 99.37-22.48 102.49-19.2 102.49-12.5 102.49-5.8 99.37-2.53 96.24 0.75 89.24 0.75 82.24 0.75 79.12-2.53ZM86.74-16.35L86.74-16.35 86.74-6.55 88.29-6.55Q90.09-6.55 90.92-6.93 91.74-7.3 91.74-8.65L91.74-8.65 91.74-18.45 90.19-18.45Q88.39-18.45 87.57-18.07 86.74-17.7 86.74-16.35ZM106.49-25L111.49-25 113.99-22.5Q118.64-25.75 123.99-25.75L123.99-25.75Q127.49-25.75 129.49-24.23 131.49-22.7 131.49-20L131.49-20 131.49 0 121.49 0 121.49-17.5 119.94-17.5Q118.24-17.5 117.37-17.13 116.49-16.75 116.49-15.6L116.49-15.6 116.49 0 106.49 0 106.49-25ZM134.89 6.75L134.89 6.75 136.19-0.7Q140.44 0.75 146.14 0.75L146.14 0.75Q147.84 0.75 148.54 0.65L148.54 0.65 148.54-1.1Q144.09-1.1 142.71-1.48 141.34-1.85 140.91-2.23 140.49-2.6 140.41-2.85 140.34-3.1 140.34-3.55L140.34-3.55 141.84-7.85Q138.24-8.5 136.36-10.55 134.49-12.6 134.49-16.98 134.49-21.35 137.44-23.55 140.39-25.75 147.04-25.75L147.04-25.75Q149.44-25.75 151.29-25.45L151.29-25.45 155.64-28.8 160.89-23.75 158.04-20.4Q158.69-18.65 158.69-15.9L158.69-15.9Q158.69-11.95 156.71-10.03 154.74-8.1 149.69-7.7L149.69-7.7 149.49-6.5Q154.89-6.2 157.11-4.88 159.34-3.55 159.34 0L159.34 0Q159.34 6.05 153.49 7.5L153.49 7.5Q150.59 8.25 145.66 8.25 140.74 8.25 134.89 6.75ZM143.89-17L143.89-17 143.89-13.75 145.44-13.75Q147.24-13.75 148.06-14.13 148.89-14.5 148.89-15.85L148.89-15.85 148.89-19.1 147.34-19.1Q145.54-19.1 144.71-18.73 143.89-18.35 143.89-17ZM165.16-2.53Q162.04-5.8 162.04-12.5 162.04-19.2 165.16-22.48 168.29-25.75 175.29-25.75 182.29-25.75 185.41-22.48 188.54-19.2 188.54-12.5 188.54-5.8 185.41-2.53 182.29 0.75 175.29 0.75 168.29 0.75 165.16-2.53ZM172.79-16.35L172.79-16.35 172.79-6.55 174.34-6.55Q176.14-6.55 176.96-6.93 177.79-7.3 177.79-8.65L177.79-8.65 177.79-18.45 176.24-18.45Q174.44-18.45 173.61-18.07 172.79-17.7 172.79-16.35Z" opacity="1" transform="matrix(1,0,0,1,0,0)" fill="#000000" class="wordmark-text-0" data-fill-palette-color="primary" id="text-0"></path></svg></g></svg></g><g transform="matrix(1,0,0,1,0,68.20586393561472)"><svg viewBox="0 0 68.12451909464905 34.10083515270088" height="34.10083515270088" width="68.12451909464905"><g transform="matrix(1,0,0,1,0,0)"><svg width="68.12451909464905" viewBox="1.1 -38.2 88.29 44.2" height="34.10083515270088" data-palette-color="#ffc604"><path d="M9.9-10.4L9.9-5.9Q9.9-3.45 10.5-2.25L10.5-2.25Q10.2-1.45 8.83-0.73 7.45 0 5.78 0 4.1 0 3.18-1.03 2.25-2.05 2.25-3.8L2.25-3.8 2.25-24.9Q2.25-29.2 1.4-31.8L1.4-31.8 1.1-32.75Q1.3-33 1.68-33.4 2.05-33.8 3.33-34.48 4.6-35.15 5.95-35.15L5.95-35.15Q9.9-35.15 9.9-28.9L9.9-28.9 9.9-13.3Q10.95-14 12.05-14.2L12.05-14.2Q13.45-18.5 14.6-25.8L14.6-25.8Q16.05-26.45 18.55-26.45L18.55-26.45Q21.95-26.45 21.95-22.9L21.95-22.9Q21.95-21 20.5-17.55 19.05-14.1 16.9-12.15L16.9-12.15 19.9-7.5Q21.35-5.4 22.1-4.4L22.1-4.4 22.9-3.35Q22.15-1.15 20-0.35L20-0.35Q19.1 0 18 0L18 0Q15.35 0 14.1-2.45L14.1-2.45 9.9-10.4ZM34.6-14.7L34.6-15.05Q34.6-18.6 30.65-18.6L30.65-18.6Q28.4-18.6 25.95-17.15L25.95-17.15Q25.15-17.95 25.15-19.13 25.15-20.3 25.82-21.55 26.5-22.8 27.62-23.93 28.75-25.05 30.5-25.78 32.25-26.5 34.2-26.5L34.2-26.5Q38.1-26.5 40.2-24.05 42.3-21.6 42.3-17.05L42.3-17.05 42.3-5.6 43.4-3.05Q43.2-2.7 42.85-2.2 42.5-1.7 41.3-0.85 40.1 0 38.8 0L38.8 0Q35.55 0 34.85-3.6L34.85-3.6Q33.2 0 30.27 0 27.35 0 25.82-1.83 24.3-3.65 24.3-6.6L24.3-6.6Q24.3-14.25 34.6-14.7L34.6-14.7ZM30.55-8.45L30.55-8.45Q30.55-6.5 31.9-5.95L31.9-5.95Q32.2-5.8 32.55-5.8L32.55-5.8Q33.55-5.8 34.6-6.95L34.6-6.95 34.6-12.45Q30.55-11.5 30.55-8.45ZM53.09-20.2L53.09-5.9Q53.09-3.45 53.7-2.25L53.7-2.25Q53.39-1.45 52.02-0.73 50.64 0 48.97 0 47.3 0 46.37-1.03 45.45-2.05 45.45-3.8L45.45-3.8 45.45-16.5Q45.45-20.65 44.64-23.4L44.64-23.4 44.34-24.35Q44.55-24.6 44.92-25 45.3-25.4 46.55-26.05 47.8-26.7 49.14-26.7L49.14-26.7Q52.3-26.7 52.95-22.7L52.95-22.7Q53.49-24.25 55.02-25.38 56.55-26.5 59.17-26.5 61.8-26.5 63.59-24.53 65.39-22.55 65.39-19.1L65.39-19.1 65.39-5.6 66.5-3.05Q66.3-2.7 65.94-2.2 65.59-1.7 64.39-0.85 63.2 0 61.84 0L61.84 0Q57.74 0 57.74-5.9L57.74-5.9 57.74-15.55Q57.74-18.3 56.74-19.25 55.74-20.2 53.09-20.2L53.09-20.2ZM70.57-25.98Q72.09-26.7 73.54-26.7 74.99-26.7 76.07-25.4 77.14-24.1 77.14-22.45L77.14-22.45 77.14-0.35Q77.14 2.5 75.49 4.25 73.84 6 71.39 6L71.39 6Q67.24 6 67.24 3.25L67.24 3.25Q67.24 1.7 68.19 0.55L68.19 0.55 69.94 1 69.44-20.9 68.34-24.35Q69.04-25.25 70.57-25.98ZM77.19-32.8Q77.19-30.9 76.02-29.85 74.84-28.8 72.67-28.8 70.49-28.8 69.47-30.2 68.44-31.6 67.79-34.5L67.79-34.5Q68.64-35.5 70.07-36.3 71.49-37.1 72.74-37.1L72.74-37.1Q77.19-37.1 77.19-32.8L77.19-32.8ZM84.74 0L84.74 0Q80.64 0 80.64-5.9L80.64-5.9Q80.64-20.9 80.99-25.65L80.99-25.65Q82.04-26.7 84.34-26.7L84.34-26.7Q88.29-26.7 88.29-20.45L88.29-20.45 88.29-5.6 89.39-3.05Q89.19-2.7 88.84-2.2 88.49-1.7 87.29-0.85 86.09 0 84.74 0ZM88.49-33.77Q88.49-31.7 87.49-30.38 86.49-29.05 84.47-29.05 82.44-29.05 81.47-30.53 80.49-32 79.84-35.05L79.84-35.05Q80.04-35.4 80.39-35.93 80.74-36.45 81.92-37.33 83.09-38.2 84.34-38.2L84.34-38.2Q86.64-38.2 87.57-37.02 88.49-35.85 88.49-33.77Z" opacity="1" transform="matrix(1,0,0,1,0,0)" fill="#000000" class="slogan-text-1" data-fill-palette-color="secondary" id="text-1"></path></svg></g></svg></g></svg></g></svg></g></svg></g></svg></g><path d="M233.473 66.447L233.473 6.855 0 6.855 0 240.345 233.473 240.345 233.473 180.753 228.496 180.753 228.496 235.369 4.976 235.369 4.976 11.831 228.496 11.831 228.496 66.447Z" fill="#000000" stroke="transparent" data-fill-palette-color="tertiary"></path></svg></g><defs></defs></svg><rect width="395.52" height="247.2" fill="none" stroke="none" visibility="hidden"></rect></g></svg></g></svg>